<?xml version="1.0" standalone="yes"?>

<svg version="1.1" viewBox="0.0 0.0 1122.5196850393702 793.7007874015748" fill="none" stroke="none" stroke-linecap="square" stroke-miterlimit="10" xmlns="http://www.w3.org/2000/svg" xmlns:xlink="http://www.w3.org/1999/xlink"><clipPath id="p_1.0"><path d="m0 0l1122.5197 0l0 793.7008l-1122.5197 0l0 -793.7008z" clip-rule="nonzero"></path></clipPath><g clip-path="url(#p_1.0)"><path fill="#000000" fill-opacity="0.0" d="m0 0l1122.5197 0l0 793.7008l-1122.5197 0z" fill-rule="evenodd"></path><path fill="#000000" fill-opacity="0.0" d="m0 0l603.0 0l0 118.0l-603.0 0z" fill-rule="evenodd"></path><path fill="#000000" fill-opacity="0.0" d="m9.19832 42.68021l116.56693 0l0 38.425198l-116.56693 0z" fill-rule="evenodd"></path><path fill="#000000" fill-opacity="0.0" d="m9.19832 42.68021l116.56693 0l0 38.425198l-116.56693 0z" fill-rule="evenodd"></path><path fill="#000000" d="m33.072815 64.175934q0.109375 0.171875 0.1875 0.375q0.078125 0.1875 0.140625 0.390625q0.078125 -0.203125 0.15625 -0.390625q0.078125 -0.1875 0.1875 -0.375l3.546875 -6.46875q0.09375 -0.15625 0.203125 -0.1875q0.109375 -0.046875 0.296875 -0.046875l1.046875 0l0 10.5l-1.25 0l0 -7.71875q0 -0.15625 0 -0.328125q0.015625 -0.171875 0.03125 -0.359375l-3.59375 6.5625q-0.1875 0.328125 -0.515625 0.328125l-0.203125 0q-0.328125 0 -0.515625 -0.328125l-3.671877 -6.578125q0.015625 0.1875 0.015625 0.375q0.015625 0.171875 0.015625 0.328125l0 7.71875l-1.234375 0l0 -10.5l1.046875 0q0.1875 0 0.28125 0.046875q0.109375 0.03125 0.203125 0.1875l3.625002 6.46875l0 0zm11.061707 -3.75q0.65625 0 1.21875 0.234375q0.5625 0.21875 0.96875 0.640625q0.421875 0.421875 0.65625 1.046875q0.234375 0.609375 0.234375 1.40625q0 0.3125 -0.078125 0.421875q-0.0625 0.09375 -0.25 0.09375l-4.9375 0q0.015625 0.703125 0.1875 1.21875q0.1875 0.515625 0.484375 0.875q0.3125 0.34375 0.734375 0.515625q0.421875 0.171875 0.953125 0.171875q0.5 0 0.84375 -0.109375q0.359375 -0.125 0.609375 -0.25q0.265625 -0.140625 0.4375 -0.25q0.171875 -0.109375 0.296875 -0.109375q0.15625 0 0.25 0.125l0.359375 0.46875q-0.234375 0.296875 -0.578125 0.515625q-0.328125 0.21875 -0.71875 0.359375q-0.375 0.140625 -0.796875 0.203125q-0.40625 0.078125 -0.8125 0.078125q-0.765625 0 -1.421875 -0.265625q-0.640625 -0.265625 -1.125 -0.765625q-0.46875 -0.5 -0.734375 -1.234375q-0.25 -0.75 -0.25 -1.703125q0 -0.78125 0.234375 -1.453125q0.234375 -0.671875 0.671875 -1.15625q0.453125 -0.5 1.09375 -0.78125q0.65625 -0.296875 1.46875 -0.296875zm0.015625 0.96875q-0.9375 0 -1.484375 0.546875q-0.53125 0.546875 -0.671875 1.515625l4.03125 0q0 -0.453125 -0.125 -0.828125q-0.109375 -0.390625 -0.359375 -0.65625q-0.234375 -0.28125 -0.59375 -0.421875q-0.34375 -0.15625 -0.796875 -0.15625zm6.961029 6.703125q-0.875 0 -1.34375 -0.484375q-0.46875 -0.5 -0.46875 -1.421875l0 -4.546875l-0.90625 0q-0.109375 0 -0.1875 -0.0625q-0.078125 -0.078125 -0.078125 -0.234375l0 -0.515625l1.203125 -0.15625l0.3125 -2.28125q0.015625 -0.109375 0.09375 -0.171875q0.078125 -0.078125 0.203125 -0.078125l0.65625 0l0 2.546875l2.125 0l0 0.953125l-2.125 0l0 4.453125q0 0.46875 0.21875 0.703125q0.234375 0.21875 0.59375 0.21875q0.203125 0 0.359375 -0.046875q0.15625 -0.0625 0.265625 -0.125q0.109375 -0.0625 0.171875 -0.109375q0.078125 -0.0625 0.140625 -0.0625q0.109375 0 0.1875 0.109375l0.375 0.625q-0.328125 0.328125 -0.8125 0.515625q-0.46875 0.171875 -0.984375 0.171875zm6.2323456 -7.671875q0.8125 0 1.46875 0.28125q0.65625 0.265625 1.109375 0.765625q0.453125 0.5 0.703125 1.203125q0.25 0.703125 0.25 1.578125q0 0.875 -0.25 1.59375q-0.25 0.703125 -0.703125 1.203125q-0.453125 0.484375 -1.109375 0.765625q-0.65625 0.265625 -1.46875 0.265625q-0.8125 0 -1.46875 -0.265625q-0.65625 -0.28125 -1.125 -0.765625q-0.453125 -0.5 -0.703125 -1.203125q-0.25 -0.71875 -0.25 -1.59375q0 -0.875 0.25 -1.578125q0.25 -0.703125 0.703125 -1.203125q0.46875 -0.5 1.125 -0.765625q0.65625 -0.28125 1.46875 -0.28125zm0 6.625q1.09375 0 1.640625 -0.734375q0.546875 -0.734375 0.546875 -2.046875q0 -1.328125 -0.546875 -2.0625q-0.546875 -0.75 -1.640625 -0.75q-0.5625 0 -0.96875 0.1875q-0.40625 0.1875 -0.6875 0.546875q-0.28125 0.359375 -0.421875 0.890625q-0.125 0.515625 -0.125 1.1875q0 0.65625 0.125 1.171875q0.140625 0.515625 0.421875 0.875q0.28125 0.359375 0.6875 0.546875q0.40625 0.1875 0.96875 0.1875zm10.367523 0.921875q-0.28125 0 -0.359375 -0.265625l-0.109375 -0.90625q-0.484375 0.578125 -1.09375 0.9375q-0.609375 0.34375 -1.40625 0.34375q-0.625 0 -1.15625 -0.25q-0.515625 -0.25 -0.890625 -0.71875q-0.359375 -0.484375 -0.5625 -1.1875q-0.1875 -0.71875 -0.1875 -1.640625q0 -0.8125 0.21875 -1.515625q0.21875 -0.71875 0.625 -1.234375q0.421875 -0.53125 1.015625 -0.828125q0.59375 -0.296875 1.34375 -0.296875q0.6875 0 1.171875 0.234375q0.484375 0.234375 0.859375 0.65625l0 -4.125l1.3125 0l0 10.796875l-0.78125 0zm-2.53125 -0.953125q0.640625 0 1.109375 -0.28125q0.484375 -0.296875 0.890625 -0.84375l0 -3.59375q-0.359375 -0.46875 -0.796875 -0.65625q-0.421875 -0.203125 -0.9375 -0.203125q-1.046875 0 -1.609375 0.734375q-0.546875 0.734375 -0.546875 2.109375q0 0.734375 0.125 1.25q0.125 0.515625 0.359375 0.84375q0.25 0.328125 0.59375 0.484375q0.359375 0.15625 0.8125 0.15625zm8.505249 -6.59375q0.8125 0 1.46875 0.28125q0.65625 0.265625 1.109375 0.765625q0.453125 0.5 0.703125 1.203125q0.25 0.703125 0.25 1.578125q0 0.875 -0.25 1.59375q-0.25 0.703125 -0.703125 1.203125q-0.453125 0.484375 -1.109375 0.765625q-0.65625 0.265625 -1.46875 0.265625q-0.8125 0 -1.46875 -0.265625q-0.65625 -0.28125 -1.125 -0.765625q-0.453125 -0.5 -0.703125 -1.203125q-0.25 -0.71875 -0.25 -1.59375q0 -0.875 0.25 -1.578125q0.25 -0.703125 0.703125 -1.203125q0.46875 -0.5 1.125 -0.765625q0.65625 -0.28125 1.46875 -0.28125zm0 6.625q1.09375 0 1.640625 -0.734375q0.546875 -0.734375 0.546875 -2.046875q0 -1.328125 -0.546875 -2.0625q-0.546875 -0.75 -1.640625 -0.75q-0.5625 0 -0.96875 0.1875q-0.40625 0.1875 -0.6875 0.546875q-0.28125 0.359375 -0.421875 0.890625q-0.125 0.515625 -0.125 1.1875q0 0.65625 0.125 1.171875q0.140625 0.515625 0.421875 0.875q0.28125 0.359375 0.6875 0.546875q0.40625 0.1875 0.96875 0.1875zm6.586273 -9.875l0 10.796875l-1.296875 0l0 -10.796875l1.296875 0zm5.314453 3.25q0.8125 0 1.46875 0.28125q0.65625 0.265625 1.109375 0.765625q0.453125 0.5 0.703125 1.203125q0.25 0.703125 0.25 1.578125q0 0.875 -0.25 1.59375q-0.25 0.703125 -0.703125 1.203125q-0.453125 0.484375 -1.109375 0.765625q-0.65625 0.265625 -1.46875 0.265625q-0.8125 0 -1.46875 -0.265625q-0.65625 -0.28125 -1.125 -0.765625q-0.453125 -0.5 -0.703125 -1.203125q-0.25 -0.71875 -0.25 -1.59375q0 -0.875 0.25 -1.578125q0.25 -0.703125 0.703125 -1.203125q0.46875 -0.5 1.125 -0.765625q0.65625 -0.28125 1.46875 -0.28125zm0 6.625q1.09375 0 1.640625 -0.734375q0.546875 -0.734375 0.546875 -2.046875q0 -1.328125 -0.546875 -2.0625q-0.546875 -0.75 -1.640625 -0.75q-0.5625 0 -0.96875 0.1875q-0.40625 0.1875 -0.6875 0.546875q-0.28125 0.359375 -0.421875 0.890625q-0.125 0.515625 -0.125 1.1875q0 0.65625 0.125 1.171875q0.140625 0.515625 0.421875 0.875q0.28125 0.359375 0.6875 0.546875q0.40625 0.1875 0.96875 0.1875zm7.633148 -6.625q0.484375 0 0.90625 0.109375q0.421875 0.109375 0.765625 0.3125l2.015625 0l0 0.484375q0 0.234375 -0.296875 0.296875l-0.84375 0.125q0.25 0.46875 0.25 1.0625q0 0.546875 -0.21875 0.984375q-0.203125 0.4375 -0.578125 0.765625q-0.359375 0.3125 -0.875 0.484375q-0.515625 0.15625 -1.125 0.15625q-0.515625 0 -0.96875 -0.125q-0.234375 0.15625 -0.359375 0.328125q-0.125 0.15625 -0.125 0.3125q0 0.265625 0.203125 0.40625q0.21875 0.140625 0.5625 0.203125q0.359375 0.046875 0.8125 0.0625q0.453125 0.015625 0.90625 0.046875q0.46875 0.03125 0.90625 0.125q0.453125 0.078125 0.796875 0.265625q0.359375 0.171875 0.578125 0.5q0.21875 0.3125 0.21875 0.828125q0 0.484375 -0.25 0.921875q-0.234375 0.453125 -0.6875 0.796875q-0.4375 0.34375 -1.09375 0.546875q-0.640625 0.21875 -1.453125 0.21875q-0.8125 0 -1.421875 -0.15625q-0.609375 -0.15625 -1.015625 -0.4375q-0.40625 -0.265625 -0.609375 -0.625q-0.203125 -0.359375 -0.203125 -0.75q0 -0.546875 0.34375 -0.921875q0.359375 -0.390625 0.96875 -0.609375q-0.3125 -0.15625 -0.5 -0.390625q-0.1875 -0.25 -0.1875 -0.671875q0 -0.15625 0.046875 -0.328125q0.0625 -0.171875 0.1875 -0.328125q0.125 -0.171875 0.296875 -0.328125q0.171875 -0.15625 0.40625 -0.28125q-0.546875 -0.296875 -0.859375 -0.8125q-0.3125 -0.515625 -0.3125 -1.1875q0 -0.546875 0.203125 -0.984375q0.21875 -0.453125 0.59375 -0.75q0.375 -0.3125 0.890625 -0.484375q0.515625 -0.171875 1.125 -0.171875zm2.328125 7.953125q0 -0.28125 -0.15625 -0.453125q-0.15625 -0.171875 -0.421875 -0.25q-0.265625 -0.09375 -0.609375 -0.140625q-0.34375 -0.046875 -0.734375 -0.0625q-0.375 -0.015625 -0.765625 -0.03125q-0.390625 -0.03125 -0.75 -0.09375q-0.421875 0.203125 -0.6875 0.484375q-0.25 0.28125 -0.25 0.6875q0 0.25 0.125 0.453125q0.125 0.21875 0.390625 0.375q0.265625 0.15625 0.65625 0.25q0.40625 0.09375 0.953125 0.09375q0.515625 0 0.9375 -0.09375q0.421875 -0.09375 0.703125 -0.265625q0.296875 -0.171875 0.453125 -0.421875q0.15625 -0.234375 0.15625 -0.53125zm-2.328125 -4.03125q0.40625 0 0.703125 -0.109375q0.3125 -0.109375 0.515625 -0.3125q0.203125 -0.203125 0.296875 -0.46875q0.109375 -0.28125 0.109375 -0.609375q0 -0.671875 -0.421875 -1.078125q-0.40625 -0.40625 -1.203125 -0.40625q-0.78125 0 -1.203125 0.40625q-0.40625 0.40625 -0.40625 1.078125q0 0.328125 0.109375 0.609375q0.109375 0.265625 0.3125 0.46875q0.203125 0.203125 0.5 0.3125q0.3125 0.109375 0.6875 0.109375zm6.442383 -3.796875l0 7.421875l-1.296875 0l0 -7.421875l1.296875 0zm1.859375 -3.203125l-1.703125 1.890625q-0.109375 0.109375 -0.21875 0.171875q-0.09375 0.046875 -0.234375 0.046875l-0.78125 0l1.078125 -1.78125q0.109375 -0.171875 0.21875 -0.25q0.125 -0.078125 0.359375 -0.078125l1.28125 0zm5.892578 10.625l-0.578125 0q-0.1875 0 -0.3125 -0.0625q-0.109375 -0.0625 -0.140625 -0.25l-0.15625 -0.6875q-0.28125 0.265625 -0.5625 0.484375q-0.28125 0.203125 -0.59375 0.34375q-0.296875 0.140625 -0.65625 0.21875q-0.34375 0.078125 -0.765625 0.078125q-0.4375 0 -0.8125 -0.125q-0.375 -0.125 -0.65625 -0.359375q-0.28125 -0.25 -0.453125 -0.609375q-0.15625 -0.375 -0.15625 -0.890625q0 -0.4375 0.234375 -0.84375q0.25 -0.40625 0.78125 -0.71875q0.546875 -0.3125 1.421875 -0.515625q0.875 -0.203125 2.125 -0.234375l0 -0.578125q0 -0.859375 -0.375 -1.296875q-0.359375 -0.453125 -1.078125 -0.453125q-0.484375 0 -0.8125 0.125q-0.328125 0.109375 -0.5625 0.265625q-0.234375 0.15625 -0.40625 0.28125q-0.171875 0.109375 -0.34375 0.109375q-0.125 0 -0.234375 -0.0625q-0.09375 -0.078125 -0.15625 -0.171875l-0.234375 -0.421875q0.625 -0.59375 1.328125 -0.890625q0.71875 -0.296875 1.578125 -0.296875q0.625 0 1.109375 0.21875q0.484375 0.203125 0.8125 0.578125q0.328125 0.359375 0.484375 0.875q0.171875 0.515625 0.171875 1.140625l0 4.75zm-3.375 -0.796875q0.34375 0 0.625 -0.0625q0.28125 -0.078125 0.53125 -0.203125q0.265625 -0.125 0.484375 -0.3125q0.234375 -0.1875 0.453125 -0.421875l0 -1.546875q-0.890625 0.03125 -1.53125 0.15625q-0.625 0.109375 -1.03125 0.296875q-0.390625 0.171875 -0.578125 0.421875q-0.171875 0.25 -0.171875 0.5625q0 0.28125 0.09375 0.5q0.109375 0.21875 0.265625 0.359375q0.15625 0.125 0.375 0.1875q0.21875 0.0625 0.484375 0.0625z" fill-rule="nonzero"></path><path fill="#bfd964" fill-opacity="0.5885" d="m130.08598 20.58992l16.132507 0l26.670654 40.850395l-26.670654 40.850395l-16.132507 0l26.670654 -40.850395z" fill-rule="evenodd"></path><path fill="#000000" fill-opacity="0.0" d="m172.87947 20.629606l116.72441 0l0 81.70078l-116.72441 0z" fill-rule="evenodd"></path><path fill="#bfd964" fill-opacity="0.5885" d="m289.58887 20.58992l16.132507 0l26.670654 40.850395l-26.670654 40.850395l-16.132507 0l26.670654 -40.850395z" fill-rule="evenodd"></path><path fill="#000000" fill-opacity="0.0" d="m332.38226 20.629606l116.724396 0l0 81.70078l-116.724396 0z" fill-rule="evenodd"></path><path fill="#000000" fill-opacity="0.0" d="m332.38226 20.629606l116.724396 0l0 81.70078l-116.724396 0z" fill-rule="evenodd"></path><path fill="#000000" d="m356.10413 67.560005l-1.4375 0l0 -4.781254l-5.65625 0l0 4.781254l-1.421875 0l0 -10.500004l1.421875 0l0 4.6875l5.65625 0l0 -4.6875l1.4375 0l0 10.500004zm5.2987366 -7.546879q0.65625 0 1.21875 0.234375q0.5625 0.21875 0.96875 0.640625q0.421875 0.421875 0.65625 1.046875q0.234375 0.609375 0.234375 1.40625q0 0.3125 -0.078125 0.421875q-0.0625 0.09375 -0.25 0.09375l-4.9375 0q0.015625 0.7031288 0.1875 1.2187538q0.1875 0.515625 0.484375 0.875q0.3125 0.34375 0.734375 0.515625q0.421875 0.171875 0.953125 0.171875q0.5 0 0.84375 -0.109375q0.359375 -0.125 0.609375 -0.25q0.265625 -0.140625 0.4375 -0.25q0.171875 -0.109375 0.296875 -0.109375q0.15625 0 0.25 0.125l0.359375 0.46875q-0.234375 0.296875 -0.578125 0.515625q-0.328125 0.21875 -0.71875 0.359375q-0.375 0.140625 -0.796875 0.203125q-0.40625 0.078125 -0.8125 0.078125q-0.765625 0 -1.421875 -0.265625q-0.640625 -0.265625 -1.125 -0.765625q-0.46875 -0.5 -0.734375 -1.234375q-0.25 -0.75 -0.25 -1.7031288q0 -0.78125 0.234375 -1.453125q0.234375 -0.671875 0.671875 -1.15625q0.453125 -0.5 1.09375 -0.78125q0.65625 -0.296875 1.46875 -0.296875zm0.015625 0.96875q-0.9375 0 -1.484375 0.546875q-0.53125 0.546875 -0.671875 1.515625l4.03125 0q0 -0.453125 -0.125 -0.828125q-0.109375 -0.390625 -0.359375 -0.65625q-0.234375 -0.28125 -0.59375 -0.421875q-0.34375 -0.15625 -0.796875 -0.15625zm4.711029 6.578129l0 -7.421879l0.75 0q0.21875 0 0.296875 0.078125q0.078125 0.078125 0.109375 0.28125l0.09375 1.15625q0.375 -0.78125 0.9375 -1.21875q0.5625 -0.4375 1.3125 -0.4375q0.3125 0 0.5625 0.078125q0.25 0.0625 0.453125 0.1875l-0.15625 0.984375q-0.0625 0.171875 -0.234375 0.171875q-0.109375 0 -0.328125 -0.0625q-0.203125 -0.0625 -0.578125 -0.0625q-0.6875 0 -1.140625 0.390625q-0.453125 0.390625 -0.765625 1.140625l0 4.734379l-1.3125 0zm5.9064026 0l0 -7.421879l0.75 0q0.21875 0 0.296875 0.078125q0.078125 0.078125 0.109375 0.28125l0.09375 1.15625q0.375 -0.78125 0.9375 -1.21875q0.5625 -0.4375 1.3125 -0.4375q0.3125 0 0.5625 0.078125q0.25 0.0625 0.453125 0.1875l-0.15625 0.984375q-0.0625 0.171875 -0.234375 0.171875q-0.109375 0 -0.328125 -0.0625q-0.203125 -0.0625 -0.578125 -0.0625q-0.6875 0 -1.140625 0.390625q-0.453125 0.390625 -0.765625 1.140625l0 4.734379l-1.3125 0zm11.359528 0l-0.578125 0q-0.1875 0 -0.3125 -0.0625q-0.109375 -0.0625 -0.140625 -0.25l-0.15625 -0.6875q-0.28125 0.265625 -0.5625 0.484375q-0.28125 0.203125 -0.59375 0.34375q-0.296875 0.140625 -0.65625 0.21875q-0.34375 0.078125 -0.765625 0.078125q-0.4375 0 -0.8125 -0.125q-0.375 -0.125 -0.65625 -0.359375q-0.28125 -0.25 -0.453125 -0.609375q-0.15625 -0.375 -0.15625 -0.890625q0 -0.4375 0.234375 -0.84375q0.25 -0.40625 0.78125 -0.71875q0.546875 -0.3125038 1.421875 -0.5156288q0.875 -0.203125 2.125 -0.234375l0 -0.578125q0 -0.859375 -0.375 -1.296875q-0.359375 -0.453125 -1.078125 -0.453125q-0.484375 0 -0.8125 0.125q-0.328125 0.109375 -0.5625 0.265625q-0.234375 0.15625 -0.40625 0.28125q-0.171875 0.109375 -0.34375 0.109375q-0.125 0 -0.234375 -0.0625q-0.09375 -0.078125 -0.15625 -0.171875l-0.234375 -0.421875q0.625 -0.59375 1.328125 -0.890625q0.71875 -0.296875 1.578125 -0.296875q0.625 0 1.109375 0.21875q0.484375 0.203125 0.8125 0.578125q0.328125 0.359375 0.484375 0.875q0.171875 0.515625 0.171875 1.140625l0 4.750004zm-3.375 -0.796875q0.34375 0 0.625 -0.0625q0.28125 -0.078125 0.53125 -0.203125q0.265625 -0.125 0.484375 -0.3125q0.234375 -0.1875 0.453125 -0.421875l0 -1.546875q-0.890625 0.03125 -1.53125 0.15625q-0.625 0.109375 -1.03125 0.296875q-0.390625 0.171875 -0.578125 0.421875q-0.171875 0.25 -0.171875 0.5625q0 0.28125 0.09375 0.5q0.109375 0.21875 0.265625 0.359375q0.15625 0.125 0.375 0.1875q0.21875 0.0625 0.484375 0.0625zm5.3525085 0.796875l0 -7.421879l0.78125 0q0.28125 0 0.359375 0.265625l0.09375 0.765625q0.40625 -0.5 0.90625 -0.828125q0.515625 -0.328125 1.1875 -0.328125q0.765625 0 1.21875 0.421875q0.46875 0.421875 0.671875 1.125q0.15625 -0.390625 0.40625 -0.6875q0.265625 -0.296875 0.578125 -0.484375q0.3125 -0.1875 0.65625 -0.28125q0.359375 -0.09375 0.734375 -0.09375q0.578125 0 1.03125 0.1875q0.46875 0.1875 0.78125 0.546875q0.328125 0.359375 0.484375 0.890625q0.171875 0.515625 0.171875 1.1875l0 4.734379l-1.296875 0l0 -4.734379q0 -0.859375 -0.390625 -1.3125q-0.375 -0.453125 -1.09375 -0.453125q-0.328125 0 -0.625 0.125q-0.28125 0.109375 -0.5 0.328125q-0.21875 0.21875 -0.359375 0.546875q-0.125 0.328125 -0.125 0.765625l0 4.734379l-1.296875 0l0 -4.734379q0 -0.890625 -0.359375 -1.328125q-0.359375 -0.4375 -1.046875 -0.4375q-0.484375 0 -0.90625 0.265625q-0.40625 0.25 -0.75 0.703125l0 5.531254l-1.3125 0zm13.485748 -7.421879l0 7.421879l-1.296875 0l0 -7.421879l1.296875 0zm0.296875 -2.328125q0 0.1875 -0.078125 0.359375q-0.078125 0.15625 -0.203125 0.28125q-0.125 0.125 -0.296875 0.203125q-0.171875 0.078125 -0.359375 0.078125q-0.1875 0 -0.359375 -0.078125q-0.15625 -0.078125 -0.296875 -0.203125q-0.125 -0.125 -0.203125 -0.28125q-0.0625 -0.171875 -0.0625 -0.359375q0 -0.1875 0.0625 -0.359375q0.078125 -0.171875 0.203125 -0.296875q0.140625 -0.140625 0.296875 -0.203125q0.171875 -0.078125 0.359375 -0.078125q0.1875 0 0.359375 0.078125q0.171875 0.0625 0.296875 0.203125q0.125 0.125 0.203125 0.296875q0.078125 0.171875 0.078125 0.359375zm4.955078 2.203125q0.65625 0 1.21875 0.234375q0.5625 0.21875 0.96875 0.640625q0.421875 0.421875 0.65625 1.046875q0.234375 0.609375 0.234375 1.40625q0 0.3125 -0.078125 0.421875q-0.0625 0.09375 -0.25 0.09375l-4.9375 0q0.015625 0.7031288 0.1875 1.2187538q0.1875 0.515625 0.484375 0.875q0.3125 0.34375 0.734375 0.515625q0.421875 0.171875 0.953125 0.171875q0.5 0 0.84375 -0.109375q0.359375 -0.125 0.609375 -0.25q0.265625 -0.140625 0.4375 -0.25q0.171875 -0.109375 0.296875 -0.109375q0.15625 0 0.25 0.125l0.359375 0.46875q-0.234375 0.296875 -0.578125 0.515625q-0.328125 0.21875 -0.71875 0.359375q-0.375 0.140625 -0.796875 0.203125q-0.40625 0.078125 -0.8125 0.078125q-0.765625 0 -1.421875 -0.265625q-0.640625 -0.265625 -1.125 -0.765625q-0.46875 -0.5 -0.734375 -1.234375q-0.25 -0.75 -0.25 -1.7031288q0 -0.78125 0.234375 -1.453125q0.234375 -0.671875 0.671875 -1.15625q0.453125 -0.5 1.09375 -0.78125q0.65625 -0.296875 1.46875 -0.296875zm0.015625 0.96875q-0.9375 0 -1.484375 0.546875q-0.53125 0.546875 -0.671875 1.515625l4.03125 0q0 -0.453125 -0.125 -0.828125q-0.109375 -0.390625 -0.359375 -0.65625q-0.234375 -0.28125 -0.59375 -0.421875q-0.34375 -0.15625 -0.796875 -0.15625zm4.711029 6.578129l0 -7.421879l0.78125 0q0.28125 0 0.359375 0.265625l0.09375 0.8125q0.484375 -0.53125 1.078125 -0.859375q0.609375 -0.34375 1.390625 -0.34375q0.609375 0 1.0625 0.203125q0.46875 0.203125 0.78125 0.578125q0.3125 0.375 0.46875 0.890625q0.171875 0.515625 0.171875 1.140625l0 4.734379l-1.3125 0l0 -4.734379q0 -0.828125 -0.390625 -1.296875q-0.375 -0.46875 -1.171875 -0.46875q-0.578125 0 -1.078125 0.28125q-0.5 0.28125 -0.921875 0.75l0 5.468754l-1.3125 0zm10.398773 0.125q-0.875 0 -1.34375 -0.484375q-0.46875 -0.5 -0.46875 -1.421875l0 -4.546879l-0.90625 0q-0.109375 0 -0.1875 -0.0625q-0.078125 -0.078125 -0.078125 -0.234375l0 -0.515625l1.203125 -0.15625l0.3125 -2.28125q0.015625 -0.109375 0.09375 -0.171875q0.078125 -0.078125 0.203125 -0.078125l0.65625 0l0 2.546875l2.125 0l0 0.953125l-2.125 0l0 4.453129q0 0.46875 0.21875 0.703125q0.234375 0.21875 0.59375 0.21875q0.203125 0 0.359375 -0.046875q0.15625 -0.0625 0.265625 -0.125q0.109375 -0.0625 0.171875 -0.109375q0.078125 -0.0625 0.140625 -0.0625q0.109375 0 0.1875 0.109375l0.375 0.625q-0.328125 0.328125 -0.8125 0.515625q-0.46875 0.171875 -0.984375 0.171875zm8.669861 -0.125l-0.578125 0q-0.1875 0 -0.3125 -0.0625q-0.109375 -0.0625 -0.140625 -0.25l-0.15625 -0.6875q-0.28125 0.265625 -0.5625 0.484375q-0.28125 0.203125 -0.59375 0.34375q-0.296875 0.140625 -0.65625 0.21875q-0.34375 0.078125 -0.765625 0.078125q-0.4375 0 -0.8125 -0.125q-0.375 -0.125 -0.65625 -0.359375q-0.28125 -0.25 -0.453125 -0.609375q-0.15625 -0.375 -0.15625 -0.890625q0 -0.4375 0.234375 -0.84375q0.25 -0.40625 0.78125 -0.71875q0.546875 -0.3125038 1.421875 -0.5156288q0.875 -0.203125 2.125 -0.234375l0 -0.578125q0 -0.859375 -0.375 -1.296875q-0.359375 -0.453125 -1.078125 -0.453125q-0.484375 0 -0.8125 0.125q-0.328125 0.109375 -0.5625 0.265625q-0.234375 0.15625 -0.40625 0.28125q-0.171875 0.109375 -0.34375 0.109375q-0.125 0 -0.234375 -0.0625q-0.09375 -0.078125 -0.15625 -0.171875l-0.234375 -0.421875q0.625 -0.59375 1.328125 -0.890625q0.71875 -0.296875 1.578125 -0.296875q0.625 0 1.109375 0.21875q0.484375 0.203125 0.8125 0.578125q0.328125 0.359375 0.484375 0.875q0.171875 0.515625 0.171875 1.140625l0 4.750004zm-3.375 -0.796875q0.34375 0 0.625 -0.0625q0.28125 -0.078125 0.53125 -0.203125q0.265625 -0.125 0.484375 -0.3125q0.234375 -0.1875 0.453125 -0.421875l0 -1.546875q-0.890625 0.03125 -1.53125 0.15625q-0.625 0.109375 -1.03125 0.296875q-0.390625 0.171875 -0.578125 0.421875q-0.171875 0.25 -0.171875 0.5625q0 0.28125 0.09375 0.5q0.109375 0.21875 0.265625 0.359375q0.15625 0.125 0.375 0.1875q0.21875 0.0625 0.484375 0.0625zm9.602509 -5.406254q-0.078125 0.171875 -0.265625 0.171875q-0.109375 0 -0.25 -0.078125q-0.140625 -0.09375 -0.34375 -0.1875q-0.203125 -0.09375 -0.484375 -0.171875q-0.265625 -0.09375 -0.65625 -0.09375q-0.328125 0 -0.59375 0.09375q-0.25 0.078125 -0.4375 0.21875q-0.1875 0.140625 -0.296875 0.34375q-0.09375 0.1875 -0.09375 0.421875q0 0.28125 0.15625 0.46875q0.171875 0.1875 0.4375 0.328125q0.28125 0.140625 0.625 0.25q0.34375 0.109375 0.703125 0.234375q0.359375 0.109375 0.703125 0.265625q0.34375 0.140625 0.609375 0.359375q0.28125 0.21875381 0.4375 0.5468788q0.171875 0.3125 0.171875 0.765625q0 0.5 -0.1875 0.9375q-0.171875 0.4375 -0.53125 0.765625q-0.359375 0.3125 -0.890625 0.5q-0.515625 0.1875 -1.1875 0.1875q-0.78125 0 -1.421875 -0.25q-0.625 -0.265625 -1.0625 -0.65625l0.3125 -0.5q0.0625 -0.09375 0.140625 -0.140625q0.078125 -0.0625 0.203125 -0.0625q0.140625 0 0.28125 0.109375q0.140625 0.09375 0.34375 0.21875q0.21875 0.125 0.515625 0.234375q0.296875 0.09375 0.75 0.09375q0.375 0 0.65625 -0.09375q0.296875 -0.09375 0.484375 -0.265625q0.1875 -0.171875 0.28125 -0.390625q0.09375 -0.21875 0.09375 -0.46875q0 -0.3125 -0.171875 -0.5q-0.15625 -0.203125 -0.4375 -0.34375q-0.265625 -0.15625 -0.609375 -0.25q-0.34375 -0.109375 -0.71875 -0.21875q-0.359375 -0.125 -0.703125 -0.2656288q-0.34375 -0.15625 -0.625 -0.390625q-0.265625 -0.234375 -0.4375 -0.5625q-0.15625 -0.328125 -0.15625 -0.8125q0 -0.421875 0.171875 -0.8125q0.171875 -0.390625 0.5 -0.6875q0.34375 -0.296875 0.828125 -0.46875q0.5 -0.1875 1.140625 -0.1875q0.71875 0 1.296875 0.234375q0.59375 0.234375 1.015625 0.640625l-0.296875 0.46875z" fill-rule="nonzero"></path><path fill="#bfd964" fill-opacity="0.5885" d="m449.09164 20.58992l16.132507 0l26.670654 40.850395l-26.670654 40.850395l-16.132507 0l26.670654 -40.850395z" fill-rule="evenodd"></path><path fill="#ffffff" d="m496.55347 63.44462l0 0c0 -27.396801 22.209534 -49.6063 49.606323 -49.6063l0 0c13.156372 0 25.773926 5.226362 35.076965 14.529348c9.3029785 9.302986 14.529297 21.920544 14.529297 35.07695l0 0c0 27.396805 -22.209473 49.6063 -49.606262 49.6063l0 0c-27.39679 0 -49.606323 -22.209496 -49.606323 -49.6063z" fill-rule="evenodd"></path><path stroke="#999999" stroke-width="2.0" stroke-miterlimit="800.0" stroke-linecap="butt" d="m496.55347 63.44462l0 0c0 -27.396801 22.209534 -49.6063 49.606323 -49.6063l0 0c13.156372 0 25.773926 5.226362 35.076965 14.529348c9.3029785 9.302986 14.529297 21.920544 14.529297 35.07695l0 0c0 27.396805 -22.209473 49.6063 -49.606262 49.6063l0 0c-27.39679 0 -49.606323 -22.209496 -49.606323 -49.6063z" fill-rule="evenodd"></path><path fill="#000000" fill-opacity="0.0" d="m511.08148 28.366299l70.14172 0l0 70.14174l-70.14172 0z" fill-rule="evenodd"></path><path fill="#434343" d="m523.70044 60.84904q0.484375 0 0.84375 -0.15625q0.375 -0.15625 0.625 -0.4375q0.265625 -0.296875 0.40625 -0.6875q0.140625 -0.40625 0.140625 -0.890625l0 -4.640625l1.03125 0l0 4.640625q0 0.671875 -0.21875 1.234375q-0.203125 0.5625 -0.59375 0.984375q-0.390625 0.40625 -0.96875 0.640625q-0.5625 0.234375 -1.265625 0.234375q-0.703125 0 -1.265625 -0.234375q-0.5625 -0.234375 -0.96875 -0.640625q-0.390625 -0.421875 -0.59375 -0.984375q-0.203125 -0.5625 -0.203125 -1.234375l0 -4.640625l1.015625 0l0 4.640625q0 0.484375 0.140625 0.890625q0.140625 0.390625 0.390625 0.6875q0.265625 0.28125 0.640625 0.4375q0.375 0.15625 0.84375 0.15625zm4.6698 0.828125l0 -5.390625l0.5625 0q0.203125 0 0.25 0.1875l0.078125 0.59375q0.359375 -0.390625 0.78125 -0.625q0.4375 -0.25 1.015625 -0.25q0.4375 0 0.765625 0.15625q0.34375 0.140625 0.5625 0.40625q0.234375 0.265625 0.34375 0.65625q0.125 0.375 0.125 0.828125l0 3.4375l-0.9375 0l0 -3.4375q0 -0.609375 -0.28125 -0.9375q-0.28125 -0.34375 -0.859375 -0.34375q-0.421875 0 -0.796875 0.203125q-0.359375 0.1875 -0.671875 0.546875l0 3.96875l-0.9375 0zm6.9718018 -5.390625l0 5.390625l-0.9375 0l0 -5.390625l0.9375 0zm0.21875 -1.703125q0 0.140625 -0.0625 0.265625q-0.046875 0.109375 -0.140625 0.203125q-0.09375 0.09375 -0.21875 0.15625q-0.125 0.046875 -0.265625 0.046875q-0.140625 0 -0.265625 -0.046875q-0.109375 -0.0625 -0.203125 -0.15625q-0.09375 -0.09375 -0.15625 -0.203125q-0.046875 -0.125 -0.046875 -0.265625q0 -0.140625 0.046875 -0.265625q0.0625 -0.125 0.15625 -0.21875q0.09375 -0.09375 0.203125 -0.140625q0.125 -0.0625 0.265625 -0.0625q0.140625 0 0.265625 0.0625q0.125 0.046875 0.21875 0.140625q0.09375 0.09375 0.140625 0.21875q0.0625 0.125 0.0625 0.265625zm1.6655273 7.09375l0 -4.59375l-0.59375 -0.0625q-0.109375 -0.03125 -0.1875 -0.078125q-0.0625 -0.0625 -0.0625 -0.171875l0 -0.390625l0.84375 0l0 -0.515625q0 -0.46875 0.125 -0.828125q0.140625 -0.359375 0.375 -0.59375q0.25 -0.25 0.59375 -0.375q0.34375 -0.140625 0.765625 -0.140625q0.359375 0 0.671875 0.109375l-0.015625 0.46875q-0.015625 0.109375 -0.109375 0.140625q-0.078125 0.015625 -0.21875 0.015625l-0.171875 0q-0.25 0 -0.453125 0.0625q-0.1875 0.0625 -0.34375 0.203125q-0.140625 0.140625 -0.21875 0.390625q-0.078125 0.234375 -0.078125 0.578125l0 0.484375l1.5625 0l0 0.6875l-1.53125 0l0 4.609375l-0.953125 0zm4.4349365 -5.390625l0 5.390625l-0.9375 0l0 -5.390625l0.9375 0zm0.21875 -1.703125q0 0.140625 -0.0625 0.265625q-0.046875 0.109375 -0.140625 0.203125q-0.09375 0.09375 -0.21875 0.15625q-0.125 0.046875 -0.265625 0.046875q-0.140625 0 -0.265625 -0.046875q-0.109375 -0.0625 -0.203125 -0.15625q-0.09375 -0.09375 -0.15625 -0.203125q-0.046875 -0.125 -0.046875 -0.265625q0 -0.140625 0.046875 -0.265625q0.0625 -0.125 0.15625 -0.21875q0.09375 -0.09375 0.203125 -0.140625q0.125 -0.0625 0.265625 -0.0625q0.140625 0 0.265625 0.0625q0.125 0.046875 0.21875 0.140625q0.09375 0.09375 0.140625 0.21875q0.0625 0.125 0.0625 0.265625zm5.1342773 2.65625q-0.03125 0.0625 -0.078125 0.09375q-0.046875 0.03125 -0.125 0.03125q-0.078125 0 -0.171875 -0.0625q-0.09375 -0.078125 -0.234375 -0.15625q-0.140625 -0.078125 -0.359375 -0.140625q-0.203125 -0.0625 -0.5 -0.0625q-0.390625 0 -0.703125 0.140625q-0.296875 0.140625 -0.5 0.40625q-0.203125 0.265625 -0.3125 0.640625q-0.09375 0.375 -0.09375 0.84375q0 0.484375 0.109375 0.875q0.109375 0.375 0.3125 0.640625q0.203125 0.25 0.484375 0.390625q0.296875 0.140625 0.65625 0.140625q0.34375 0 0.5625 -0.078125q0.234375 -0.09375 0.375 -0.1875q0.15625 -0.109375 0.25 -0.1875q0.09375 -0.078125 0.203125 -0.078125q0.109375 0 0.171875 0.078125l0.265625 0.359375q-0.34375 0.421875 -0.875 0.625q-0.53125 0.203125 -1.109375 0.203125q-0.515625 0 -0.953125 -0.1875q-0.421875 -0.1875 -0.75 -0.53125q-0.3125 -0.359375 -0.5 -0.875q-0.1875 -0.53125 -0.1875 -1.1875q0 -0.59375 0.171875 -1.109375q0.171875 -0.515625 0.484375 -0.875q0.328125 -0.375 0.796875 -0.578125q0.484375 -0.21875 1.09375 -0.21875q0.5625 0 1.0 0.1875q0.4375 0.1875 0.765625 0.515625l-0.25 0.34375zm5.2577515 4.4375l-0.40625 0q-0.140625 0 -0.234375 -0.03125q-0.078125 -0.046875 -0.109375 -0.1875l-0.109375 -0.5q-0.203125 0.1875 -0.40625 0.34375q-0.203125 0.140625 -0.4375 0.25q-0.21875 0.109375 -0.46875 0.15625q-0.25 0.046875 -0.5625 0.046875q-0.3125 0 -0.59375 -0.078125q-0.265625 -0.09375 -0.46875 -0.265625q-0.203125 -0.171875 -0.328125 -0.4375q-0.125 -0.28125 -0.125 -0.640625q0 -0.328125 0.171875 -0.625q0.1875 -0.296875 0.578125 -0.515625q0.390625 -0.234375 1.015625 -0.375q0.640625 -0.15625 1.5625 -0.171875l0 -0.421875q0 -0.625 -0.28125 -0.9375q-0.265625 -0.328125 -0.78125 -0.328125q-0.359375 0 -0.59375 0.09375q-0.234375 0.078125 -0.40625 0.1875q-0.171875 0.109375 -0.296875 0.203125q-0.125 0.078125 -0.25 0.078125q-0.09375 0 -0.171875 -0.046875q-0.0625 -0.046875 -0.109375 -0.125l-0.171875 -0.3125q0.453125 -0.421875 0.96875 -0.640625q0.515625 -0.21875 1.140625 -0.21875q0.453125 0 0.796875 0.15625q0.359375 0.15625 0.59375 0.421875q0.25 0.265625 0.359375 0.640625q0.125 0.375 0.125 0.828125l0 3.453125zm-2.453125 -0.578125q0.25 0 0.453125 -0.046875q0.21875 -0.0625 0.390625 -0.15625q0.1875 -0.09375 0.359375 -0.21875q0.171875 -0.140625 0.328125 -0.3125l0 -1.109375q-0.65625 0.015625 -1.125 0.09375q-0.453125 0.078125 -0.75 0.21875q-0.28125 0.125 -0.40625 0.3125q-0.125 0.1875 -0.125 0.40625q0 0.21875 0.0625 0.375q0.078125 0.140625 0.1875 0.25q0.125 0.09375 0.28125 0.140625q0.15625 0.046875 0.34375 0.046875zm7.574646 -3.859375q-0.03125 0.0625 -0.078125 0.09375q-0.046875 0.03125 -0.125 0.03125q-0.078125 0 -0.171875 -0.0625q-0.09375 -0.078125 -0.234375 -0.15625q-0.140625 -0.078125 -0.359375 -0.140625q-0.203125 -0.0625 -0.5 -0.0625q-0.390625 0 -0.703125 0.140625q-0.296875 0.140625 -0.5 0.40625q-0.203125 0.265625 -0.3125 0.640625q-0.09375 0.375 -0.09375 0.84375q0 0.484375 0.109375 0.875q0.109375 0.375 0.3125 0.640625q0.203125 0.25 0.484375 0.390625q0.296875 0.140625 0.65625 0.140625q0.34375 0 0.5625 -0.078125q0.234375 -0.09375 0.375 -0.1875q0.15625 -0.109375 0.25 -0.1875q0.09375 -0.078125 0.203125 -0.078125q0.109375 0 0.171875 0.078125l0.265625 0.359375q-0.34375 0.421875 -0.875 0.625q-0.53125 0.203125 -1.109375 0.203125q-0.515625 0 -0.953125 -0.1875q-0.421875 -0.1875 -0.75 -0.53125q-0.3125 -0.359375 -0.5 -0.875q-0.1875 -0.53125 -0.1875 -1.1875q0 -0.59375 0.171875 -1.109375q0.171875 -0.515625 0.484375 -0.875q0.328125 -0.375 0.796875 -0.578125q0.484375 -0.21875 1.09375 -0.21875q0.5625 0 1.0 0.1875q0.4375 0.1875 0.765625 0.515625l-0.25 0.34375zm2.3515625 -0.953125l0 5.390625l-0.9375 0l0 -5.390625l0.9375 0zm0.21875 -1.703125q0 0.140625 -0.0625 0.265625q-0.046875 0.109375 -0.140625 0.203125q-0.09375 0.09375 -0.21875 0.15625q-0.125 0.046875 -0.265625 0.046875q-0.140625 0 -0.265625 -0.046875q-0.109375 -0.0625 -0.203125 -0.15625q-0.09375 -0.09375 -0.15625 -0.203125q-0.046875 -0.125 -0.046875 -0.265625q0 -0.140625 0.046875 -0.265625q0.0625 -0.125 0.15625 -0.21875q0.09375 -0.09375 0.203125 -0.140625q0.125 -0.0625 0.265625 -0.0625q0.140625 0 0.265625 0.0625q0.125 0.046875 0.21875 0.140625q0.09375 0.09375 0.140625 0.21875q0.0625 0.125 0.0625 0.265625zm3.6499023 1.609375q0.578125 0 1.046875 0.203125q0.484375 0.1875 0.8125 0.5625q0.34375 0.359375 0.515625 0.875q0.1875 0.515625 0.1875 1.140625q0 0.640625 -0.1875 1.15625q-0.171875 0.515625 -0.515625 0.875q-0.328125 0.359375 -0.8125 0.5625q-0.46875 0.1875 -1.046875 0.1875q-0.59375 0 -1.078125 -0.1875q-0.46875 -0.203125 -0.8125 -0.5625q-0.328125 -0.359375 -0.515625 -0.875q-0.171875 -0.515625 -0.171875 -1.15625q0 -0.625 0.171875 -1.140625q0.1875 -0.515625 0.515625 -0.875q0.34375 -0.375 0.8125 -0.5625q0.484375 -0.203125 1.078125 -0.203125zm0 4.8125q0.796875 0 1.1875 -0.53125q0.390625 -0.53125 0.390625 -1.5q0 -0.953125 -0.390625 -1.484375q-0.390625 -0.546875 -1.1875 -0.546875q-0.40625 0 -0.71875 0.140625q-0.296875 0.140625 -0.5 0.40625q-0.1875 0.25 -0.296875 0.640625q-0.09375 0.375 -0.09375 0.84375q0 0.484375 0.09375 0.875q0.109375 0.375 0.296875 0.640625q0.203125 0.25 0.5 0.390625q0.3125 0.125 0.71875 0.125zm1.21875 -7.046875l-1.25 1.375q-0.078125 0.078125 -0.15625 0.109375q-0.0625 0.03125 -0.171875 0.03125l-0.5625 0l0.78125 -1.28125q0.078125 -0.125 0.15625 -0.171875q0.09375 -0.0625 0.265625 -0.0625l0.9375 0zm2.5186768 7.71875l0 -5.390625l0.5625 0q0.203125 0 0.25 0.1875l0.078125 0.59375q0.359375 -0.390625 0.78125 -0.625q0.4375 -0.25 1.015625 -0.25q0.4375 0 0.765625 0.15625q0.34375 0.140625 0.5625 0.40625q0.234375 0.265625 0.34375 0.65625q0.125 0.375 0.125 0.828125l0 3.4375l-0.9375 0l0 -3.4375q0 -0.609375 -0.28125 -0.9375q-0.28125 -0.34375 -0.859375 -0.34375q-0.421875 0 -0.796875 0.203125q-0.359375 0.1875 -0.671875 0.546875l0 3.96875l-0.9375 0z" fill-rule="nonzero"></path><path fill="#434343" d="m524.6388 72.92716q0.3125 0 0.5625 -0.03125q0.265625 -0.03125 0.484375 -0.078125q0.234375 -0.0625 0.4375 -0.140625q0.203125 -0.09375 0.40625 -0.203125l0 -1.671875l-1.171875 0q-0.109375 0 -0.171875 -0.0625q-0.0625 -0.0625 -0.0625 -0.140625l0 -0.59375l2.34375 0l0 2.9375q-0.28125 0.203125 -0.59375 0.359375q-0.3125 0.15625 -0.671875 0.265625q-0.34375 0.09375 -0.75 0.140625q-0.40625 0.046875 -0.890625 0.046875q-0.828125 0 -1.515625 -0.28125q-0.6875 -0.28125 -1.203125 -0.796875q-0.5 -0.515625 -0.78125 -1.234375q-0.265625 -0.71875 -0.265625 -1.578125q0 -0.875 0.265625 -1.59375q0.28125 -0.71875 0.78125 -1.234375q0.515625 -0.515625 1.234375 -0.796875q0.71875 -0.28125 1.625 -0.28125q0.453125 0 0.828125 0.0625q0.390625 0.0625 0.71875 0.1875q0.34375 0.125 0.625 0.3125q0.28125 0.171875 0.53125 0.40625l-0.296875 0.46875q-0.09375 0.140625 -0.234375 0.140625q-0.078125 0 -0.1875 -0.0625q-0.125 -0.078125 -0.296875 -0.171875q-0.15625 -0.109375 -0.40625 -0.203125q-0.234375 -0.109375 -0.5625 -0.171875q-0.3125 -0.078125 -0.75 -0.078125q-0.65625 0 -1.171875 0.21875q-0.515625 0.203125 -0.890625 0.59375q-0.375 0.390625 -0.578125 0.953125q-0.1875 0.5625 -0.1875 1.25q0 0.71875 0.203125 1.296875q0.203125 0.5625 0.578125 0.953125q0.375 0.390625 0.890625 0.609375q0.515625 0.203125 1.125 0.203125zm5.3217773 -7.09375l0 7.84375l-0.9375 0l0 -7.84375l0.9375 0zm3.8686523 2.359375q0.578125 0 1.046875 0.203125q0.484375 0.1875 0.8125 0.5625q0.34375 0.359375 0.515625 0.875q0.1875 0.515625 0.1875 1.140625q0 0.640625 -0.1875 1.15625q-0.171875 0.515625 -0.515625 0.875q-0.328125 0.359375 -0.8125 0.5625q-0.46875 0.1875 -1.046875 0.1875q-0.59375 0 -1.078125 -0.1875q-0.46875 -0.203125 -0.8125 -0.5625q-0.328125 -0.359375 -0.515625 -0.875q-0.171875 -0.515625 -0.171875 -1.15625q0 -0.625 0.171875 -1.140625q0.1875 -0.515625 0.515625 -0.875q0.34375 -0.375 0.8125 -0.5625q0.484375 -0.203125 1.078125 -0.203125zm0 4.8125q0.796875 0 1.1875 -0.53125q0.390625 -0.53125 0.390625 -1.5q0 -0.953125 -0.390625 -1.484375q-0.390625 -0.546875 -1.1875 -0.546875q-0.40625 0 -0.71875 0.140625q-0.296875 0.140625 -0.5 0.40625q-0.1875 0.25 -0.296875 0.640625q-0.09375 0.375 -0.09375 0.84375q0 0.484375 0.09375 0.875q0.109375 0.375 0.296875 0.640625q0.203125 0.25 0.5 0.390625q0.3125 0.125 0.71875 0.125zm3.7686768 0.671875l0 -7.84375l0.953125 0l0 3.21875q0.328125 -0.390625 0.765625 -0.625q0.4375 -0.234375 1.0 -0.234375q0.46875 0 0.84375 0.1875q0.375 0.171875 0.640625 0.515625q0.265625 0.34375 0.40625 0.859375q0.15625 0.515625 0.15625 1.1875q0 0.59375 -0.171875 1.109375q-0.15625 0.515625 -0.453125 0.890625q-0.296875 0.375 -0.734375 0.59375q-0.4375 0.21875 -0.984375 0.21875q-0.515625 0 -0.890625 -0.203125q-0.359375 -0.203125 -0.625 -0.5625l-0.046875 0.484375q-0.046875 0.203125 -0.25 0.203125l-0.609375 0zm2.40625 -4.71875q-0.46875 0 -0.8125 0.21875q-0.34375 0.203125 -0.640625 0.59375l0 2.609375q0.25 0.34375 0.5625 0.5q0.3125 0.140625 0.703125 0.140625q0.75 0 1.15625 -0.53125q0.40625 -0.546875 0.40625 -1.546875q0 -0.53125 -0.09375 -0.90625q-0.09375 -0.375 -0.265625 -0.609375q-0.171875 -0.25 -0.4375 -0.359375q-0.25 -0.109375 -0.578125 -0.109375zm7.472534 4.71875l-0.40625 0q-0.140625 0 -0.234375 -0.03125q-0.078125 -0.046875 -0.109375 -0.1875l-0.109375 -0.5q-0.203125 0.1875 -0.40625 0.34375q-0.203125 0.140625 -0.4375 0.25q-0.21875 0.109375 -0.46875 0.15625q-0.25 0.046875 -0.5625 0.046875q-0.3125 0 -0.59375 -0.078125q-0.265625 -0.09375 -0.46875 -0.265625q-0.203125 -0.171875 -0.328125 -0.4375q-0.125 -0.28125 -0.125 -0.640625q0 -0.328125 0.171875 -0.625q0.1875 -0.296875 0.578125 -0.515625q0.390625 -0.234375 1.015625 -0.375q0.640625 -0.15625 1.5625 -0.171875l0 -0.421875q0 -0.625 -0.28125 -0.9375q-0.265625 -0.328125 -0.78125 -0.328125q-0.359375 0 -0.59375 0.09375q-0.234375 0.078125 -0.40625 0.1875q-0.171875 0.109375 -0.296875 0.203125q-0.125 0.078125 -0.25 0.078125q-0.09375 0 -0.171875 -0.046875q-0.0625 -0.046875 -0.109375 -0.125l-0.171875 -0.3125q0.453125 -0.421875 0.96875 -0.640625q0.515625 -0.21875 1.140625 -0.21875q0.453125 0 0.796875 0.15625q0.359375 0.15625 0.59375 0.421875q0.25 0.265625 0.359375 0.640625q0.125 0.375 0.125 0.828125l0 3.453125zm-2.453125 -0.578125q0.25 0 0.453125 -0.046875q0.21875 -0.0625 0.390625 -0.15625q0.1875 -0.09375 0.359375 -0.21875q0.171875 -0.140625 0.328125 -0.3125l0 -1.109375q-0.65625 0.015625 -1.125 0.09375q-0.453125 0.078125 -0.75 0.21875q-0.28125 0.125 -0.40625 0.3125q-0.125 0.1875 -0.125 0.40625q0 0.21875 0.0625 0.375q0.078125 0.140625 0.1875 0.25q0.125 0.09375 0.28125 0.140625q0.15625 0.046875 0.34375 0.046875zm4.949646 -7.265625l0 7.84375l-0.9375 0l0 -7.84375l0.9375 0z" fill-rule="nonzero"></path><path fill="#434343" d="m559.19543 66.03654l-0.09375 0.84375l-2.265625 0l-0.828125 6.796875l-0.984375 0l0.828125 -6.796875l-2.265625 0l0.09375 -0.84375l5.515625 0zm3.151123 6.875q0.34375 0 0.609375 -0.0625q0.28125 -0.0625 0.484375 -0.140625q0.203125 -0.09375 0.34375 -0.1875q0.15625 -0.109375 0.265625 -0.1875q0.109375 -0.09375 0.1875 -0.15625q0.078125 -0.0625 0.125 -0.0625q0.0625 0 0.09375 0.03125q0.03125 0.015625 0.046875 0.046875l0.34375 0.421875q-0.5 0.546875 -1.15625 0.84375q-0.640625 0.296875 -1.515625 0.296875q-0.6875 0 -1.234375 -0.234375q-0.53125 -0.25 -0.90625 -0.6875q-0.375 -0.4375 -0.578125 -1.046875q-0.203125 -0.609375 -0.203125 -1.34375q0 -0.984375 0.3125 -1.8125q0.3125 -0.828125 0.84375 -1.421875q0.546875 -0.59375 1.265625 -0.921875q0.734375 -0.328125 1.578125 -0.328125q0.40625 0 0.734375 0.078125q0.328125 0.0625 0.59375 0.203125q0.28125 0.125 0.5 0.3125q0.21875 0.1875 0.421875 0.40625l-0.34375 0.421875q-0.046875 0.046875 -0.109375 0.09375q-0.046875 0.03125 -0.125 0.03125q-0.09375 0 -0.203125 -0.109375q-0.109375 -0.109375 -0.296875 -0.234375q-0.171875 -0.125 -0.46875 -0.234375q-0.28125 -0.109375 -0.75 -0.109375q-0.609375 0 -1.15625 0.25q-0.53125 0.25 -0.9375 0.71875q-0.390625 0.453125 -0.625 1.109375q-0.21875 0.65625 -0.21875 1.46875q0 0.59375 0.15625 1.0625q0.15625 0.46875 0.421875 0.796875q0.28125 0.328125 0.65625 0.515625q0.390625 0.171875 0.84375 0.171875zm5.074951 -3.5l0.34375 0q0.1875 0 0.3125 -0.046875q0.125 -0.0625 0.234375 -0.1875l2.640625 -2.890625q0.125 -0.140625 0.234375 -0.1875q0.125 -0.0625 0.28125 -0.0625l0.84375 0l-3.046875 3.3125q-0.109375 0.125 -0.21875 0.203125q-0.09375 0.078125 -0.203125 0.125q0.140625 0.0625 0.234375 0.15625q0.09375 0.09375 0.171875 0.21875l2.3125 3.625l-0.859375 0q-0.09375 0 -0.171875 -0.015625q-0.0625 -0.015625 -0.109375 -0.03125q-0.046875 -0.03125 -0.078125 -0.078125q-0.03125 -0.046875 -0.0625 -0.09375l-2.0 -3.046875q-0.078125 -0.125 -0.1875 -0.171875q-0.109375 -0.0625 -0.328125 -0.0625l-0.4375 0l-0.4375 3.5l-0.984375 0l0.9375 -7.640625l0.984375 0l-0.40625 3.375z" fill-rule="nonzero"></path><path fill="#000000" fill-opacity="0.0" d="m172.87947 20.629606l116.72441 0l0 81.70078l-116.72441 0z" fill-rule="evenodd"></path><path fill="#000000" d="m204.8832 63.638126l0 3.9218788l-1.421875 0l0 -10.500004l3.09375 0q1.0 0 1.734375 0.234375q0.734375 0.21875 1.21875 0.65625q0.484375 0.421875 0.71875 1.03125q0.25 0.59375 0.25 1.328125q0 0.734375 -0.265625 1.34375q-0.25 0.609375 -0.75 1.046875q-0.484375 0.4375 -1.21875 0.6875q-0.734375 0.25 -1.6875 0.25l-1.671875 0zm0 -1.140625l1.671875 0q0.609375 0 1.078125 -0.15625q0.46875 -0.15625 0.78125 -0.4375q0.3125 -0.296875 0.46875 -0.703125q0.171875 -0.40625 0.171875 -0.890625q0 -1.0 -0.625 -1.5625q-0.609375 -0.5625 -1.875 -0.5625l-1.671875 0l0 4.3125zm7.1736145 5.062504l0 -7.421879l0.75 0q0.21875 0 0.296875 0.078125q0.078125 0.078125 0.109375 0.28125l0.09375 1.15625q0.375 -0.78125 0.9375 -1.21875q0.5625 -0.4375 1.3125 -0.4375q0.3125 0 0.5625 0.078125q0.25 0.0625 0.453125 0.1875l-0.15625 0.984375q-0.0625 0.171875 -0.234375 0.171875q-0.109375 0 -0.328125 -0.0625q-0.203125 -0.0625 -0.578125 -0.0625q-0.6875 0 -1.140625 0.390625q-0.453125 0.390625 -0.765625 1.140625l0 4.734379l-1.3125 0zm8.922028 -7.546879q0.8125 0 1.46875 0.28125q0.65625 0.265625 1.109375 0.765625q0.453125 0.5 0.703125 1.203125q0.25 0.703125 0.25 1.578125q0 0.8750038 -0.25 1.5937538q-0.25 0.703125 -0.703125 1.203125q-0.453125 0.484375 -1.109375 0.765625q-0.65625 0.265625 -1.46875 0.265625q-0.8125 0 -1.46875 -0.265625q-0.65625 -0.28125 -1.125 -0.765625q-0.453125 -0.5 -0.703125 -1.203125q-0.25 -0.71875 -0.25 -1.5937538q0 -0.875 0.25 -1.578125q0.25 -0.703125 0.703125 -1.203125q0.46875 -0.5 1.125 -0.765625q0.65625 -0.28125 1.46875 -0.28125zm0 6.625004q1.09375 0 1.640625 -0.734375q0.546875 -0.734375 0.546875 -2.0468788q0 -1.328125 -0.546875 -2.0625q-0.546875 -0.75 -1.640625 -0.75q-0.5625 0 -0.96875 0.1875q-0.40625 0.1875 -0.6875 0.546875q-0.28125 0.359375 -0.421875 0.890625q-0.125 0.515625 -0.125 1.1875q0 0.6562538 0.125 1.1718788q0.140625 0.515625 0.421875 0.875q0.28125 0.359375 0.6875 0.546875q0.40625 0.1875 0.96875 0.1875zm10.211273 -5.187504q-0.0625 0.078125 -0.125 0.125q-0.0625 0.046875 -0.171875 0.046875q-0.109375 0 -0.234375 -0.09375q-0.125 -0.09375 -0.328125 -0.203125q-0.203125 -0.109375 -0.484375 -0.1875q-0.28125 -0.09375 -0.6875 -0.09375q-0.546875 0 -0.96875 0.1875q-0.40625 0.1875 -0.6875 0.5625q-0.28125 0.359375 -0.421875 0.890625q-0.140625 0.515625 -0.140625 1.15625q0 0.6718788 0.140625 1.2031288q0.15625 0.515625 0.4375 0.875q0.28125 0.359375 0.671875 0.546875q0.40625 0.1875 0.90625 0.1875q0.46875 0 0.78125 -0.109375q0.3125 -0.125 0.515625 -0.265625q0.203125 -0.140625 0.328125 -0.25q0.140625 -0.109375 0.265625 -0.109375q0.171875 0 0.25 0.125l0.375 0.46875q-0.484375 0.59375 -1.21875 0.875q-0.71875 0.28125 -1.53125 0.28125q-0.6875 0 -1.296875 -0.25q-0.59375 -0.265625 -1.03125 -0.75q-0.4375 -0.5 -0.6875 -1.203125q-0.25 -0.71875 -0.25 -1.6250038q0 -0.828125 0.21875 -1.53125q0.234375 -0.703125 0.671875 -1.203125q0.453125 -0.515625 1.09375 -0.796875q0.65625 -0.296875 1.5 -0.296875q0.78125 0 1.375 0.265625q0.609375 0.25 1.078125 0.703125l-0.34375 0.46875zm4.719391 -1.4375q0.65625 0 1.21875 0.234375q0.5625 0.21875 0.96875 0.640625q0.421875 0.421875 0.65625 1.046875q0.234375 0.609375 0.234375 1.40625q0 0.3125 -0.078125 0.421875q-0.0625 0.09375 -0.25 0.09375l-4.9375 0q0.015625 0.7031288 0.1875 1.2187538q0.1875 0.515625 0.484375 0.875q0.3125 0.34375 0.734375 0.515625q0.421875 0.171875 0.953125 0.171875q0.5 0 0.84375 -0.109375q0.359375 -0.125 0.609375 -0.25q0.265625 -0.140625 0.4375 -0.25q0.171875 -0.109375 0.296875 -0.109375q0.15625 0 0.25 0.125l0.359375 0.46875q-0.234375 0.296875 -0.578125 0.515625q-0.328125 0.21875 -0.71875 0.359375q-0.375 0.140625 -0.796875 0.203125q-0.40625 0.078125 -0.8125 0.078125q-0.765625 0 -1.421875 -0.265625q-0.640625 -0.265625 -1.125 -0.765625q-0.46875 -0.5 -0.734375 -1.234375q-0.25 -0.75 -0.25 -1.7031288q0 -0.78125 0.234375 -1.453125q0.234375 -0.671875 0.671875 -1.15625q0.453125 -0.5 1.09375 -0.78125q0.65625 -0.296875 1.46875 -0.296875zm0.015625 0.96875q-0.9375 0 -1.484375 0.546875q-0.53125 0.546875 -0.671875 1.515625l4.03125 0q0 -0.453125 -0.125 -0.828125q-0.109375 -0.390625 -0.359375 -0.65625q-0.234375 -0.28125 -0.59375 -0.421875q-0.34375 -0.15625 -0.796875 -0.15625zm8.961029 0.375q-0.078125 0.171875 -0.265625 0.171875q-0.109375 0 -0.25 -0.078125q-0.140625 -0.09375 -0.34375 -0.1875q-0.203125 -0.09375 -0.484375 -0.171875q-0.265625 -0.09375 -0.65625 -0.09375q-0.328125 0 -0.59375 0.09375q-0.25 0.078125 -0.4375 0.21875q-0.1875 0.140625 -0.296875 0.34375q-0.09375 0.1875 -0.09375 0.421875q0 0.28125 0.15625 0.46875q0.171875 0.1875 0.4375 0.328125q0.28125 0.140625 0.625 0.25q0.34375 0.109375 0.703125 0.234375q0.359375 0.109375 0.703125 0.265625q0.34375 0.140625 0.609375 0.359375q0.28125 0.21875381 0.4375 0.5468788q0.171875 0.3125 0.171875 0.765625q0 0.5 -0.1875 0.9375q-0.171875 0.4375 -0.53125 0.765625q-0.359375 0.3125 -0.890625 0.5q-0.515625 0.1875 -1.1875 0.1875q-0.78125 0 -1.421875 -0.25q-0.625 -0.265625 -1.0625 -0.65625l0.3125 -0.5q0.0625 -0.09375 0.140625 -0.140625q0.078125 -0.0625 0.203125 -0.0625q0.140625 0 0.28125 0.109375q0.140625 0.09375 0.34375 0.21875q0.21875 0.125 0.515625 0.234375q0.296875 0.09375 0.75 0.09375q0.375 0 0.65625 -0.09375q0.296875 -0.09375 0.484375 -0.265625q0.1875 -0.171875 0.28125 -0.390625q0.09375 -0.21875 0.09375 -0.46875q0 -0.3125 -0.171875 -0.5q-0.15625 -0.203125 -0.4375 -0.34375q-0.265625 -0.15625 -0.609375 -0.25q-0.34375 -0.109375 -0.71875 -0.21875q-0.359375 -0.125 -0.703125 -0.2656288q-0.34375 -0.15625 -0.625 -0.390625q-0.265625 -0.234375 -0.4375 -0.5625q-0.15625 -0.328125 -0.15625 -0.8125q0 -0.421875 0.171875 -0.8125q0.171875 -0.390625 0.5 -0.6875q0.34375 -0.296875 0.828125 -0.46875q0.5 -0.1875 1.140625 -0.1875q0.71875 0 1.296875 0.234375q0.59375 0.234375 1.015625 0.640625l-0.296875 0.46875zm5.126358 -1.34375q0.8125 0 1.46875 0.28125q0.65625 0.265625 1.109375 0.765625q0.453125 0.5 0.703125 1.203125q0.25 0.703125 0.25 1.578125q0 0.8750038 -0.25 1.5937538q-0.25 0.703125 -0.703125 1.203125q-0.453125 0.484375 -1.109375 0.765625q-0.65625 0.265625 -1.46875 0.265625q-0.8125 0 -1.46875 -0.265625q-0.65625 -0.28125 -1.125 -0.765625q-0.453125 -0.5 -0.703125 -1.203125q-0.25 -0.71875 -0.25 -1.5937538q0 -0.875 0.25 -1.578125q0.25 -0.703125 0.703125 -1.203125q0.46875 -0.5 1.125 -0.765625q0.65625 -0.28125 1.46875 -0.28125zm0 6.625004q1.09375 0 1.640625 -0.734375q0.546875 -0.734375 0.546875 -2.0468788q0 -1.328125 -0.546875 -2.0625q-0.546875 -0.75 -1.640625 -0.75q-0.5625 0 -0.96875 0.1875q-0.40625 0.1875 -0.6875 0.546875q-0.28125 0.359375 -0.421875 0.890625q-0.125 0.515625 -0.125 1.1875q0 0.6562538 0.125 1.1718788q0.140625 0.515625 0.421875 0.875q0.28125 0.359375 0.6875 0.546875q0.40625 0.1875 0.96875 0.1875zm9.383148 -5.281254q-0.078125 0.171875 -0.265625 0.171875q-0.109375 0 -0.25 -0.078125q-0.140625 -0.09375 -0.34375 -0.1875q-0.203125 -0.09375 -0.484375 -0.171875q-0.265625 -0.09375 -0.65625 -0.09375q-0.328125 0 -0.59375 0.09375q-0.25 0.078125 -0.4375 0.21875q-0.1875 0.140625 -0.296875 0.34375q-0.09375 0.1875 -0.09375 0.421875q0 0.28125 0.15625 0.46875q0.171875 0.1875 0.4375 0.328125q0.28125 0.140625 0.625 0.25q0.34375 0.109375 0.703125 0.234375q0.359375 0.109375 0.703125 0.265625q0.34375 0.140625 0.609375 0.359375q0.28125 0.21875381 0.4375 0.5468788q0.171875 0.3125 0.171875 0.765625q0 0.5 -0.1875 0.9375q-0.171875 0.4375 -0.53125 0.765625q-0.359375 0.3125 -0.890625 0.5q-0.515625 0.1875 -1.1875 0.1875q-0.78125 0 -1.421875 -0.25q-0.625 -0.265625 -1.0625 -0.65625l0.3125 -0.5q0.0625 -0.09375 0.140625 -0.140625q0.078125 -0.0625 0.203125 -0.0625q0.140625 0 0.28125 0.109375q0.140625 0.09375 0.34375 0.21875q0.21875 0.125 0.515625 0.234375q0.296875 0.09375 0.75 0.09375q0.375 0 0.65625 -0.09375q0.296875 -0.09375 0.484375 -0.265625q0.1875 -0.171875 0.28125 -0.390625q0.09375 -0.21875 0.09375 -0.46875q0 -0.3125 -0.171875 -0.5q-0.15625 -0.203125 -0.4375 -0.34375q-0.265625 -0.15625 -0.609375 -0.25q-0.34375 -0.109375 -0.71875 -0.21875q-0.359375 -0.125 -0.703125 -0.2656288q-0.34375 -0.15625 -0.625 -0.390625q-0.265625 -0.234375 -0.4375 -0.5625q-0.15625 -0.328125 -0.15625 -0.8125q0 -0.421875 0.171875 -0.8125q0.171875 -0.390625 0.5 -0.6875q0.34375 -0.296875 0.828125 -0.46875q0.5 -0.1875 1.140625 -0.1875q0.71875 0 1.296875 0.234375q0.59375 0.234375 1.015625 0.640625l-0.296875 0.46875z" fill-rule="nonzero"></path></g></svg>

